<svg xmlns="http://www.w3.org/2000/svg" viewBox="0 0 220 56" width="220" height="56" role="img" aria-label="Dealix">
  <defs>
    <linearGradient id="dGold" x1="0%" y1="0%" x2="100%" y2="0%">
      <stop offset="0%" stop-color="#F2C66A" />
      <stop offset="100%" stop-color="#E2A53A" />
    </linearGradient>
    <linearGradient id="dNavy" x1="0%" y1="0%" x2="0%" y2="100%">
      <stop offset="0%" stop-color="#0E1A33" />
      <stop offset="100%" stop-color="#070A12" />
    </linearGradient>
  </defs>

  <!-- Mark: stylised D + matrix dot, signifying Deal + Operating Layer -->
  <g transform="translate(4 4)">
    <rect x="0" y="0" width="48" height="48" rx="12" fill="url(#dNavy)" stroke="url(#dGold)" stroke-width="2"/>
    <path d="M14 12 L24 12 C32 12 38 18 38 24 C38 30 32 36 24 36 L14 36 Z M20 18 L20 30 L24 30 C28 30 32 27 32 24 C32 21 28 18 24 18 Z" fill="url(#dGold)"/>
    <circle cx="40" cy="10" r="3" fill="url(#dGold)"/>
  </g>

  <!-- Wordmark -->
  <g transform="translate(64 38)" font-family="Inter, Segoe UI, Arial, sans-serif" font-weight="700" letter-spacing="0.5">
    <text x="0" y="0" font-size="22" fill="#FFFFFF">DEALIX</text>
    <text x="0" y="14" font-size="9" font-weight="500" fill="#E2A53A" letter-spacing="3">AI OPERATING SYSTEMS</text>
  </g>
</svg>
